<svg width="16" height="13" viewBox="0 0 16 13" fill="none" xmlns="http://www.w3.org/2000/svg">
<path d="M8.31738 11.0928C8.10579 11.3044 8 11.5485 8 11.8252C8.01628 12.1019 8.12207 12.346 8.31738 12.5576C8.52897 12.7529 8.77311 12.8587 9.0498 12.875C9.3265 12.875 9.57064 12.7692 9.78223 12.5576L14.9824 7.35742C15.194 7.14583 15.2998 6.90169 15.2998 6.625C15.2998 6.34831 15.194 6.10417 14.9824 5.89258L9.78223 0.692383C9.57064 0.480794 9.3265 0.383138 9.0498 0.399414C8.77311 0.399414 8.52897 0.505208 8.31738 0.716797C8.12207 0.912109 8.01628 1.14811 8 1.4248C8 1.7015 8.10579 1.94564 8.31738 2.15723L12.7852 6.625L8.31738 11.0928ZM1.01758 11.0928C0.822266 11.3044 0.724609 11.5485 0.724609 11.8252C0.724609 12.1019 0.822266 12.346 1.01758 12.5576C1.22917 12.7529 1.47331 12.8587 1.75 12.875C2.02669 12.875 2.27083 12.7692 2.48242 12.5576L7.68262 7.35742C7.89421 7.14583 8 6.90169 8 6.625C8 6.34831 7.89421 6.10417 7.68262 5.89258L2.48242 0.692383C2.27083 0.480794 2.02669 0.383138 1.75 0.399414C1.47331 0.399414 1.22917 0.505208 1.01758 0.716797C0.822266 0.912109 0.724609 1.14811 0.724609 1.4248C0.724609 1.7015 0.822266 1.94564 1.01758 2.15723L5.48535 6.625L1.01758 11.0928Z" fill="white"/>
</svg>
