
<svg width="1188" height="1509" viewBox="0 0 1188 1509" fill="none" xmlns="http://www.w3.org/2000/svg">
<path fill-rule="evenodd" clip-rule="evenodd" d="M1187.13 595.231C1182.13 659.287 1154.6 732.209 1094.26 759.146C1032.19 786.849 952.04 703.581 888.552 728.507C784.708 769.277 756.526 924.996 643.24 936.22C543.986 946.053 410.675 871.96 389.854 777.915C364.943 665.392 497.911 586.404 542.964 483.272C562.373 438.843 583.281 393.792 579.083 344.748C570.22 241.234 450.829 130.97 505.367 44.1371C550.663 -27.9822 686.893 3.53947 772.266 37.1691C850.604 68.0269 876.655 161.161 940.172 215.411C978.339 248.01 1036.42 252.732 1068.84 290.473C1101.52 328.517 1102.66 379.557 1120.36 425.162C1142.77 482.905 1191.83 535.197 1187.13 595.231Z" fill="#F7F7F7"/>
<path fill-rule="evenodd" clip-rule="evenodd" d="M0.338428 934.333C3.04614 870.138 27.9406 796.278 87.2844 767.195C148.318 737.285 231.4 817.629 293.954 790.444C396.27 745.978 418.854 589.35 531.665 574.074C630.503 560.69 766.384 629.959 790.561 723.198C819.488 834.756 689.436 918.458 648.108 1023.14C630.303 1068.23 611.022 1114.01 616.976 1162.87C629.542 1266 752.807 1371.91 701.416 1460.64C658.733 1534.34 521.461 1507.72 434.937 1477.17C355.545 1449.14 326.173 1357 260.752 1305.06C221.441 1273.85 163.227 1271.21 129.474 1234.66C95.4505 1197.81 92.4909 1146.84 73.1667 1101.9C48.6991 1045 -2.19924 994.497 0.338428 934.333Z" fill="#F7F7F7"/>
</svg>
